<?xml version="1.0" encoding="UTF-8"?>
<svg width="15px" height="12px" viewBox="0 0 15 12" version="1.1" xmlns="http://www.w3.org/2000/svg" xmlns:xlink="http://www.w3.org/1999/xlink">
    <!-- Generator: Sketch 59.1 (86144) - https://sketch.com -->
    <title>action-tokens</title>
    <desc>Created with Sketch.</desc>
    <g id="Components---Elements" stroke="none" stroke-width="1" fill="none" fill-rule="evenodd">
        <g id="Component---Pill---1.0---CSLJIM-430" transform="translate(-802.000000, -2533.000000)">
            <g id="action-tokens" transform="translate(800.000000, 2529.000000)">
                <polygon id="Path" opacity="0.87" points="0 0 20 0 20 20 0 20"></polygon>
                <path d="M2.5,4.16666667 L2.5,15.8333333 L16.6666667,15.8333333 L16.6666667,4.16666667 L2.5,4.16666667 Z M5.83333333,5.83333333 L5.83333333,7.5 L4.16666667,7.5 L4.16666667,5.83333333 L5.83333333,5.83333333 Z M4.16666667,10.8333333 L4.16666667,9.16666667 L5.83333333,9.16666667 L5.83333333,10.8333333 L4.16666667,10.8333333 Z M4.16666667,12.5 L5.83333333,12.5 L5.83333333,14.1666667 L4.16666667,14.1666667 L4.16666667,12.5 Z M15,14.1666667 L7.5,14.1666667 L7.5,12.5 L15,12.5 L15,14.1666667 Z M15,10.8333333 L7.5,10.8333333 L7.5,9.16666667 L15,9.16666667 L15,10.8333333 Z M15,7.5 L7.5,7.5 L7.5,5.83333333 L15,5.83333333 L15,7.5 Z" id="Shape" fill="#000000" fill-rule="nonzero"></path>
            </g>
        </g>
    </g>
</svg>