<?xml version="1.0" encoding="UTF-8"?>
<svg width="21px" height="16px" viewBox="0 0 21 16" version="1.1" xmlns="http://www.w3.org/2000/svg" xmlns:xlink="http://www.w3.org/1999/xlink">
    <!-- Generator: Sketch 59.1 (86144) - https://sketch.com -->
    <title>zeplin</title>
    <desc>Created with Sketch.</desc>
    <g id="Page-1" stroke="none" stroke-width="1" fill="none" fill-rule="evenodd">
        <g id="ZELPIN" transform="translate(-178.000000, -145.000000)">
            <g id="zeplin" transform="translate(178.000000, 145.000000)">
                <g id="Group" transform="translate(10.928962, 8.000000) rotate(-20.000000) translate(-10.928962, -8.000000) translate(1.136612, 3.060109)">
                    <polygon id="Rectangle-74" fill="#F89920" points="1.13661202 4.93989071 0 2.09836066 6.64480874 2.09836066 6.64480874 4.93989071"></polygon>
                    <polygon id="Rectangle-74-Copy" fill="#FFBE22" transform="translate(3.322404, 6.316940) scale(1, -1) translate(-3.322404, -6.316940) " points="1.13661202 7.73770492 0 4.89617486 6.64480874 4.89617486 6.64480874 7.73770492"></polygon>
                    <path d="M19.5842906,4.9442623 C19.5386718,7.67456492 15.6810244,9.87978142 10.9289617,9.87978142 C6.17689914,9.87978142 2.31925168,7.67456492 2.27363286,4.9442623 L19.5842906,4.9442623 L19.5842906,4.9442623 Z" id="Path" fill="#F0670A"></path>
                    <path d="M19.5844258,4.9442623 C19.547053,2.20994033 15.6861872,0 10.9289617,0 C6.17173627,0 2.31087047,2.20994033 2.27349768,4.9442623 L19.5844258,4.9442623 L19.5844258,4.9442623 Z" id="Path" fill="#FFD00E"></path>
                    <path d="M19.5837626,4.9442623 C19.5149702,6.75712461 15.6664311,8.21857923 10.9289617,8.21857923 C6.19149243,8.21857923 2.34295331,6.75712461 2.27416091,4.9442623 L19.5837626,4.9442623 L19.5837626,4.9442623 Z" id="Path" fill="#F89920"></path>
                    <path d="M19.5840724,4.9442623 C19.5276771,3.12737997 15.6742536,1.66120219 10.9289617,1.66120219 C6.18366995,1.66120219 2.33024636,3.12737997 2.27385107,4.9442623 L19.5840724,4.9442623 L19.5840724,4.9442623 Z" id="Path" fill="#FFBE22"></path>
                </g>
                <path d="M12.6276398,2.31238078 C12.2027416,0.843264075 11.7191709,0.0282707548 11.1697943,0.0439376115 C10.1070401,0.0742447231 9.74973932,3.44361011 10.0936603,7.76117226 C10.4412209,12.1244258 11.3427833,15.4021932 12.4668368,15.3726383 C13.1371787,15.3550129 13.514639,14.2827103 13.6470454,12.4209106 C13.6497511,12.3828647 13.6074018,12.4092338 13.6099033,12.3705308 C13.6099033,12.3705308 13.6044377,12.3025273 13.5792286,12.300898 C13.5317297,12.297828 13.4367319,12.2916881 13.4367319,12.2916881 C13.3199047,14.0992508 12.9661741,15.1408543 12.4610916,15.1541346 C11.5373272,15.1784233 10.6454819,11.9359839 10.3115494,7.74381602 C9.98312053,3.62074135 10.3367111,0.286363172 11.1760251,0.262428021 C11.573276,0.251099412 12.0182929,1.00152058 12.4122611,2.35457637 C12.4122611,2.35457637 12.6278564,2.31312977 12.6276398,2.31238078 Z" id="Shape" fill="#F0670A" fill-rule="nonzero"></path>
                <path d="M7.36165365,1.26405002 C6.45643503,1.82167387 7.8316862,4.91828026 10.2883116,8.48543826 C12.7709347,12.0903464 15.1905943,14.4781951 16.1492757,13.890573 C16.6850687,13.5621596 16.5346619,12.5652335 15.8447789,11.0601814 C15.819628,11.0053121 15.7547588,10.9812205 15.6998895,11.0063714 C15.6450202,11.0315223 15.6209287,11.0963915 15.6460796,11.1512608 C16.2874607,12.550501 16.4254221,13.4649369 16.0350484,13.7042158 C15.2471893,14.1871326 12.853609,11.8250204 10.4683309,8.36146279 C8.12236589,4.95498981 6.7613952,1.89053832 7.47629489,1.45015286 C7.85597028,1.21626897 8.75885257,1.78052563 9.95192783,2.99947821 C9.96520156,3.01303985 10.0416299,3.09212442 10.0585881,3.0972877 C10.095569,3.10854734 10.0769038,3.03008248 10.1064778,3.00113629 C10.1496135,2.95891636 10.1503558,2.88972199 10.1081359,2.84658632 C8.83357573,1.54438148 7.87701801,0.946580344 7.36165365,1.26405002 Z" id="Shape" fill="#F0670A" fill-rule="nonzero"></path>
            </g>
        </g>
    </g>
</svg>