<?xml version="1.0" encoding="UTF-8"?>
<svg width="72px" height="20px" viewBox="0 0 72 20" version="1.1" xmlns="http://www.w3.org/2000/svg" xmlns:xlink="http://www.w3.org/1999/xlink">
    <!-- Generator: Sketch 59.1 (86144) - https://sketch.com -->
    <title>pill-stroke-warning-1.0</title>
    <desc>Created with Sketch.</desc>
    <g id="Components---Elements" stroke="none" stroke-width="1" fill="none" fill-rule="evenodd">
        <g id="Component---Pill---1.0---CSLJIM-430" transform="translate(-804.000000, -1700.000000)">
            <g id="States" transform="translate(370.000000, 1150.000000)">
                <g id="Group" transform="translate(0.000000, 408.000000)">
                    <g id="3" transform="translate(384.000000, 0.000000)">
                        <g id="Pill-/-2-Stroke-/-(20px)-Default" transform="translate(50.000000, 142.000000)">
                            <path d="M62,0 C67.5228475,-1.01453063e-15 72,4.4771525 72,10 C72,15.5228475 67.5228475,20 62,20 L10,20 C4.4771525,20 6.76353751e-16,15.5228475 0,10 C-6.76353751e-16,4.4771525 4.4771525,1.01453063e-15 10,0 L62,0 Z M62,1 L10,1 C5.02943725,1 1,5.02943725 1,10 C1,14.9705627 5.02943725,19 10,19 L10,19 L62,19 C66.9705627,19 71,14.9705627 71,10 C71,5.02943725 66.9705627,1 62,1 L62,1 Z" id="PIll" fill="#FFCC00" fill-rule="nonzero"></path>
                            <text id="Label" font-family="ArialMT, Arial" font-size="13" font-weight="normal" line-spacing="16" fill="#2A2A2A">
                                <tspan x="12.0375977" y="14">Warning</tspan>
                            </text>
                        </g>
                    </g>
                </g>
            </g>
        </g>
    </g>
</svg>