<?xml version="1.0" encoding="UTF-8"?>
<svg width="54px" height="20px" viewBox="0 0 54 20" version="1.1" xmlns="http://www.w3.org/2000/svg" xmlns:xlink="http://www.w3.org/1999/xlink">
    <!-- Generator: Sketch 59.1 (86144) - https://sketch.com -->
    <title>pill-stroke-error-1.0</title>
    <desc>Created with Sketch.</desc>
    <g id="Components---Elements" stroke="none" stroke-width="1" fill="none" fill-rule="evenodd">
        <g id="Component---Pill---1.0---CSLJIM-430" transform="translate(-1005.000000, -1700.000000)" fill="#FF0000">
            <g id="States" transform="translate(370.000000, 1150.000000)">
                <g id="Group" transform="translate(0.000000, 408.000000)">
                    <g id="4" transform="translate(576.000000, 0.000000)">
                        <g id="Pill-/-2-Stroke-/-(20px)-Default" transform="translate(59.500000, 142.000000)">
                            <path d="M43,0 C48.5228475,-1.01453063e-15 53,4.4771525 53,10 C53,15.5228475 48.5228475,20 43,20 L10,20 C4.4771525,20 6.76353751e-16,15.5228475 0,10 C-6.76353751e-16,4.4771525 4.4771525,1.01453063e-15 10,0 L43,0 Z M43,1 L10,1 C5.02943725,1 1,5.02943725 1,10 C1,14.9705627 5.02943725,19 10,19 L10,19 L43,19 C47.9705627,19 52,14.9705627 52,10 C52,5.02943725 47.9705627,1 43,1 L43,1 Z" id="PIll" fill-rule="nonzero"></path>
                            <text id="Label" font-family="ArialMT, Arial" font-size="13" font-weight="normal" line-spacing="16">
                                <tspan x="12.0559082" y="14">Error</tspan>
                            </text>
                        </g>
                    </g>
                </g>
            </g>
        </g>
    </g>
</svg>