<?xml version="1.0" encoding="UTF-8"?>
<svg width="344px" height="75px" viewBox="0 0 344 75" version="1.1" xmlns="http://www.w3.org/2000/svg" xmlns:xlink="http://www.w3.org/1999/xlink">
    <!-- Generator: Sketch 59.1 (86144) - https://sketch.com -->
    <title>responsive-max-width</title>
    <desc>Created with Sketch.</desc>
    <defs>
        <rect id="path-1" x="0" y="0" width="344" height="20" rx="10"></rect>
        <filter x="-16.8%" y="-92.5%" width="133.6%" height="285.0%" filterUnits="objectBoundingBox" id="filter-3">
            <feOffset dx="0" dy="3" in="SourceAlpha" result="shadowOffsetOuter1"></feOffset>
            <feGaussianBlur stdDeviation="2" in="shadowOffsetOuter1" result="shadowBlurOuter1"></feGaussianBlur>
            <feColorMatrix values="0 0 0 0 0   0 0 0 0 0   0 0 0 0 0  0 0 0 0.1 0" type="matrix" in="shadowBlurOuter1" result="shadowMatrixOuter1"></feColorMatrix>
            <feOffset dx="0" dy="1" in="SourceAlpha" result="shadowOffsetOuter2"></feOffset>
            <feGaussianBlur stdDeviation="1" in="shadowOffsetOuter2" result="shadowBlurOuter2"></feGaussianBlur>
            <feColorMatrix values="0 0 0 0 0   0 0 0 0 0   0 0 0 0 0  0 0 0 0.1 0" type="matrix" in="shadowBlurOuter2" result="shadowMatrixOuter2"></feColorMatrix>
            <feMerge>
                <feMergeNode in="shadowMatrixOuter1"></feMergeNode>
                <feMergeNode in="shadowMatrixOuter2"></feMergeNode>
                <feMergeNode in="SourceGraphic"></feMergeNode>
            </feMerge>
        </filter>
        <rect id="path-4" x="0" y="0" width="110" height="20" rx="10"></rect>
        <rect id="path-6" x="0" y="0" width="85" height="12" rx="1"></rect>
    </defs>
    <g id="Components---Elements" stroke="none" stroke-width="1" fill="none" fill-rule="evenodd">
        <g id="Component---Pill---1.0---CSLJIM-430" transform="translate(-908.000000, -4386.000000)">
            <g id="Responsive" transform="translate(370.000000, 4184.000000)">
                <g id="Max-Width-Do" transform="translate(480.000000, 80.000000)">
                    <g id="responsive-max-width" transform="translate(58.000000, 122.000000)">
                        <g id="Pill-/-1-Default-/-(20px)-Default" transform="translate(0.000000, 20.000000)">
                            <mask id="mask-2" fill="white">
                                <use xlink:href="#path-1"></use>
                            </mask>
                            <use id="Pill" fill="#949494" fill-rule="nonzero" xlink:href="#path-1"></use>
                            <text id="Label" mask="url(#mask-2)" font-family="ArialMT, Arial" font-size="13" font-weight="normal" line-spacing="16" fill="#FFFFFF">
                                <tspan x="12.2961426" y="14">An extremely long pill does not exceed a specific length</tspan>
                            </text>
                        </g>
                        <g id="Specs/Single/Up" transform="translate(118.000000, 38.000000)">
                            <g id="-g-badge" transform="translate(-45.000000, 0.000000)">
                                <g id="Specs/Anatomy/Line/Top">
                                    <path d="M100,3.5 C100.828427,3.5 101.5,2.82842712 101.5,2 C101.5,1.17157288 100.828427,0.5 100,0.5 C99.1715729,0.5 98.5,1.17157288 98.5,2 C98.5,2.82842712 99.1715729,3.5 100,3.5 Z M100,3 L100,14" id="Guide" stroke="#6927FF" stroke-width="1.5"></path>
                                    <circle id="Mark" fill="#FFFFFF" fill-rule="evenodd" cx="100" cy="2" r="1"></circle>
                                </g>
                                <g id="Specs/Anatomy/Badge" transform="translate(45.000000, 10.000000)">
                                    <g id="-g-Badge" filter="url(#filter-3)">
                                        <g id="Specs/Anatomy/Badge/Type/Default">
                                            <mask id="mask-5" fill="white">
                                                <use xlink:href="#path-4"></use>
                                            </mask>
                                            <use id="Badge" fill-opacity="0.8" fill="#000000" fill-rule="nonzero" xlink:href="#path-4"></use>
                                        </g>
                                        <g id="Specs/Property/Code" transform="translate(7.000000, 0.000000)">
                                            <g id="Specs/Anatomy/Property">
                                                <text id="Value" font-family="Arial-BoldMT, Arial" font-size="11" font-weight="bold" line-spacing="12" fill="#FFFFFF">
                                                    <tspan x="22" y="14">$break-mobile</tspan>
                                                </text>
                                                <g id="Specs/Anatomy/Icon/Property" fill="#BDBDBD" fill-rule="nonzero">
                                                    <path d="M5.17089844,9.96289062 C5.56445509,10.1702484 5.85327056,10.3733714 6.03735352,10.5722656 C6.22143647,10.7711598 6.35896764,10.9753407 6.44995117,11.1848145 C6.5409347,11.3942882 6.58642578,11.6344388 6.58642578,11.9052734 C6.58642578,12.1464856 6.5441085,12.4617494 6.45947266,12.8510742 L6.30078125,13.574707 C6.21614541,13.9682637 6.17382812,14.260253 6.17382812,14.4506836 C6.17382812,14.7088229 6.27433168,14.9278149 6.4753418,15.107666 C6.67635192,15.2875172 7.09000338,15.3774414 7.71630859,15.3774414 L8.70019531,15.3774414 L8.70019531,16.3613281 L7.70361328,16.3613281 C6.54410228,16.3613281 5.79720219,16.1751321 5.46289062,15.8027344 C5.12857906,15.4303367 4.96142578,15.0092797 4.96142578,14.5395508 C4.96142578,14.2898751 4.99316375,14.0211603 5.05664062,13.7333984 L5.17089844,13.2255859 L5.27880859,12.6733398 L5.35498047,12.3369141 C5.38460301,12.1803378 5.39941406,12.0279955 5.39941406,11.8798828 C5.39941406,11.4863262 5.26717255,11.1499037 5.00268555,10.8706055 C4.73819855,10.5913072 4.27165048,10.4516602 3.60302734,10.4516602 L3.03808594,10.4516602 L3.03808594,9.46777344 L3.60302734,9.46777344 C4.26318689,9.46777344 4.7276191,9.33024226 4.99633789,9.05517578 C5.26505668,8.7801093 5.39941406,8.43733929 5.39941406,8.02685547 C5.39941406,7.87451096 5.38460301,7.72640046 5.35498047,7.58251953 L5.27880859,7.25244141 L5.17089844,6.70019531 L5.05664062,6.19238281 C4.99316375,5.90038917 4.96142578,5.62955854 4.96142578,5.37988281 C4.96142578,4.91438569 5.12857906,4.49438664 5.46289062,4.11987305 C5.79720219,3.74535946 6.54410228,3.55810547 7.70361328,3.55810547 L8.70019531,3.55810547 L8.70019531,4.54833984 L7.71630859,4.54833984 C7.09423517,4.54833984 6.68164164,4.63826407 6.47851562,4.81811523 C6.27538961,4.99796639 6.17382812,5.21907421 6.17382812,5.48144531 C6.17382812,5.66764416 6.21614541,5.95751756 6.30078125,6.35107422 L6.45947266,7.07470703 C6.5441085,7.46403189 6.58642578,7.77929567 6.58642578,8.02050781 C6.58642578,8.2913425 6.5409347,8.53149309 6.44995117,8.7409668 C6.35896764,8.9504405 6.22143647,9.1546214 6.03735352,9.35351562 C5.85327056,9.55240985 5.56445509,9.75553282 5.17089844,9.96289062 Z M14.8291016,9.96289062 C14.4355449,9.75553282 14.1467294,9.55240985 13.9626465,9.35351562 C13.7785635,9.1546214 13.6420903,8.9504405 13.5532227,8.7409668 C13.464355,8.53149309 13.4199219,8.2913425 13.4199219,8.02050781 C13.4199219,7.77929567 13.4601233,7.46403189 13.5405273,7.07470703 L13.6992188,6.35107422 C13.7838546,5.95751756 13.8261719,5.6655283 13.8261719,5.47509766 C13.8261719,5.21695834 13.7256683,4.99796639 13.5246582,4.81811523 C13.3236481,4.63826407 12.9099966,4.54833984 12.2836914,4.54833984 L11.2998047,4.54833984 L11.2998047,3.55810547 L12.2963867,3.55810547 C13.4558977,3.55810547 14.2038557,3.74535946 14.5402832,4.11987305 C14.8767107,4.49438664 15.0449219,4.91438569 15.0449219,5.37988281 C15.0449219,5.63379033 15.011068,5.90462096 14.9433594,6.19238281 L14.8291016,6.70019531 L14.7211914,7.25244141 L14.6450195,7.58251953 C14.615397,7.74332763 14.6005859,7.89778572 14.6005859,8.04589844 C14.6005859,8.4352233 14.7328275,8.76952985 14.9973145,9.04882812 C15.2618015,9.3281264 15.7283495,9.46777344 16.3969727,9.46777344 L16.9619141,9.46777344 L16.9619141,10.4516602 L16.3969727,10.4516602 C15.7368131,10.4516602 15.2723809,10.5902493 15.0036621,10.8674316 C14.7349433,11.144614 14.6005859,11.488442 14.6005859,11.8989258 C14.6005859,12.0470385 14.615397,12.1930331 14.6450195,12.3369141 L14.7211914,12.6733398 L14.8291016,13.2255859 L14.9433594,13.7333984 C15.011068,14.0253921 15.0449219,14.2962227 15.0449219,14.5458984 C15.0449219,15.0156273 14.8767107,15.4356264 14.5402832,15.8059082 C14.2038557,16.17619 13.4558977,16.3613281 12.2963867,16.3613281 L11.2998047,16.3613281 L11.2998047,15.3774414 L12.2836914,15.3774414 C12.9099966,15.3774414 13.3236481,15.2875172 13.5246582,15.107666 C13.7256683,14.9278149 13.8261719,14.706707 13.8261719,14.4443359 C13.8261719,14.2581371 13.7838546,13.9682637 13.6992188,13.574707 L13.5405273,12.8510742 C13.4601233,12.4617494 13.4199219,12.1464856 13.4199219,11.9052734 C13.4199219,11.6344388 13.464355,11.3942882 13.5532227,11.1848145 C13.6420903,10.9753407 13.7785635,10.7711598 13.9626465,10.5722656 C14.1467294,10.3733714 14.4355449,10.1702484 14.8291016,9.96289062 Z" id="Icon"></path>
                                                </g>
                                            </g>
                                        </g>
                                    </g>
                                </g>
                            </g>
                        </g>
                        <g id="Guides/Width" transform="translate(13.000000, 0.000000)">
                            <path d="M0.5,0 L0.5,20 M319.5,0 L319.5,20" id="Guides" stroke="#FF9800" stroke-width="1" stroke-dasharray="2,2"></path>
                            <line x1="0.5" y1="10.3333333" x2="319.5" y2="10.3333333" id="Distance" stroke="#FF9800" stroke-width="1"></line>
                            <g id="Guides/Value" transform="translate(117.500000, 4.000000)">
                                <mask id="mask-7" fill="white">
                                    <use xlink:href="#path-6"></use>
                                </mask>
                                <use id="Badge" fill="#FF9800" fill-rule="evenodd" xlink:href="#path-6"></use>
                                <text id="Value" mask="url(#mask-7)" font-family="Arial-BoldMT, Arial" font-size="9" font-weight="bold" line-spacing="12" fill="#FFFFFF">
                                    <tspan x="3.24145508" y="8">max-width: 320px;</tspan>
                                </text>
                            </g>
                        </g>
                    </g>
                </g>
            </g>
        </g>
    </g>
</svg>